<?xml version="1.0" encoding="UTF-8"?>
<svg width="47px" height="47px" viewBox="0 0 58 43" version="1.1" xmlns="http://www.w3.org/2000/svg" xmlns:xlink="http://www.w3.org/1999/xlink">
    <!-- Generator: Sketch 63.1 (92452) - https://sketch.com -->
    <title>envelope</title>
    <desc>Created with Sketch.</desc>
    <g id="Page-1" stroke="none" stroke-width="1" fill="white" fill-rule="evenodd">
        <g id="Desktop-HD-Copy" transform="translate(-579.000000, -4768.000000)" fill="#000000" fill-rule="nonzero">
            <g id="envelope" transform="translate(579.000000, 4768.000000)">
                <path d="M53.1666289,0 L4.83337109,0 C2.16763672,0 0,2.14272135 0,4.7778151 L0,38.2222969 C0,40.8572786 2.16763672,43 4.83337109,43 L53.1667422,43 C55.8323633,43 58,40.8572786 58,38.2221849 L58,4.7778151 C58,2.14272135 55.8323633,0 53.1666289,0 Z M4.83337109,2.38885156 L53.1667422,2.38885156 C53.3448203,2.38885156 53.5017148,2.45301562 53.6688047,2.48929687 C49.4843086,6.27497656 35.609168,18.8224661 30.7535937,23.1469896 C30.3736484,23.4852786 29.76125,23.8888516 29.0001133,23.8888516 C28.2389766,23.8888516 27.6265781,23.4852786 27.2453867,23.1458698 C22.3902656,18.8220182 8.51433203,6.27385677 4.33051563,2.48952083 C4.49794531,2.45323958 4.65517969,2.38885156 4.83337109,2.38885156 Z M2.41662891,38.2221849 L2.41662891,4.7778151 C2.41662891,4.54377865 2.48799609,4.33146615 2.55188672,4.11758594 C5.75457422,7.01515885 15.436043,15.770138 21.7136367,21.4131042 C15.4564336,26.7261797 5.77247266,35.8018672 2.54429687,38.8447891 C2.48731641,38.6416589 2.41662891,38.4430078 2.41662891,38.2221849 Z M53.1666289,40.6111484 L4.83337109,40.6111484 C4.64033984,40.6111484 4.46871875,40.5446328 4.28848828,40.5020807 C7.62428125,37.3586016 17.3698672,28.2307318 23.5170742,23.0323229 C24.3184258,23.7508932 25.0504492,24.4060833 25.6275039,24.9200677 C26.6234727,25.8089583 27.78925,26.2778151 29,26.2778151 C30.21075,26.2778151 31.3765273,25.8088464 32.37125,24.9211875 C32.9485313,24.4069792 33.6811211,23.7512292 34.4829258,23.0323229 C40.6304727,28.2301719 50.3746992,37.3573698 53.7115117,40.5020807 C53.5312813,40.5446328 53.3598867,40.6111484 53.1666289,40.6111484 Z M55.5833711,38.2221849 C55.5833711,38.4428958 55.5126836,38.6416589 55.4558164,38.8447891 C52.2263945,35.8002995 42.5435664,26.7256198 36.2864766,21.4132161 C42.5642969,15.77025 52.244293,7.01605469 55.4481133,4.11736198 C55.5120039,4.33124219 55.5833711,4.54366667 55.5833711,4.77770313 L55.5833711,38.2221849 L55.5833711,38.2221849 Z" id="Shape"></path>
            </g>
        </g>
    </g>
</svg>