<?xml version="1.0" encoding="UTF-8"?>
<svg width="47px" height="47px" viewBox="0 0 47 47" version="1.1" xmlns="http://www.w3.org/2000/svg" xmlns:xlink="http://www.w3.org/1999/xlink">
    <!-- Generator: Sketch 63.1 (92452) - https://sketch.com -->
    <title>linkedin (1)</title>
    <desc>Created with Sketch.</desc>
    <g id="Page-1" stroke="none" stroke-width="1" fill="none" fill-rule="evenodd">
        <g id="Desktop-HD-Copy" transform="translate(-807.000000, -4766.000000)" fill="#000000" fill-rule="nonzero">
            <g id="linkedin-(1)" transform="translate(807.000000, 4766.000000)">
                <path d="M40.1152344,0 L6.88476562,0 C3.08846281,0 0,3.08846281 0,6.88476562 L0,40.1152344 C0,43.9115372 3.08846281,47 6.88476562,47 L40.1152344,47 C43.9115372,47 47,43.9115372 47,40.1152344 L47,6.88476562 C47,3.08846281 43.9115372,0 40.1152344,0 Z M44.2460938,40.1152344 C44.2460938,42.3929443 42.3929443,44.2460938 40.1152344,44.2460938 L6.88476562,44.2460938 C4.60705566,44.2460938 2.75390625,42.3929443 2.75390625,40.1152344 L2.75390625,6.88476562 C2.75390625,4.60705566 4.60705566,2.75390625 6.88476562,2.75390625 L40.1152344,2.75390625 C42.3929443,2.75390625 44.2460938,4.60705566 44.2460938,6.88476562 L44.2460938,40.1152344 Z" id="Shape"></path>
                <path d="M8,39 L16,39 L16,20 L8,20 L8,39 Z M10.6666667,22.6886792 L13.3333333,22.6886792 L13.3333333,36.3113208 L10.6666667,36.3113208 L10.6666667,22.6886792 Z" id="Shape"></path>
                <path d="M30.8649182,20 C30.8624442,20 30.8596168,20 30.8571429,20 C29.9188058,20 29.0048549,20.1554393 28.1428571,20.4572155 L28.1428571,20 L20,20 L20,39 L28.1428571,39 L28.1428571,29.4103774 C28.1428571,28.6692401 28.7518043,28.0660377 29.5,28.0660377 C30.2481957,28.0660377 30.8571429,28.6692401 30.8571429,29.4103774 L30.8571429,39 L39,39 L39,28.4861439 C39,24.1352447 35.4367932,20.0042011 30.8649182,20 Z M36.2857143,36.3113208 L33.5714286,36.3113208 L33.5714286,29.4103774 C33.5714286,27.1866156 31.7449405,25.3773585 29.5,25.3773585 C27.2550595,25.3773585 25.4289248,27.1866156 25.4285714,29.4100273 L25.4285714,36.3113208 L22.7142857,36.3113208 L22.7142857,22.6886792 L25.4285714,22.6886792 L25.4285714,25.3791089 L27.6007068,23.7631007 C28.5454055,23.0601231 29.6714099,22.6886792 30.8571429,22.6886792 L30.8624442,22.6886792 C33.7513207,22.69148 36.2857143,25.4004643 36.2857143,28.4861439 L36.2857143,36.3113208 Z" id="Shape"></path>
                <path d="M8,16 L16,16 L16,8 L8,8 L8,16 Z M10.6666667,10.6666667 L13.3333333,10.6666667 L13.3333333,13.3333333 L10.6666667,13.3333333 L10.6666667,10.6666667 Z" id="Shape"></path>
            </g>
        </g>
    </g>
</svg>