<?xml version="1.0" encoding="UTF-8"?>
<svg width="481px" height="487px" viewBox="0 0 481 487" version="1.1" xmlns="http://www.w3.org/2000/svg" xmlns:xlink="http://www.w3.org/1999/xlink">
    <title>Artboard</title>
    <g id="Artboard" stroke="none" stroke-width="1" fill="none" fill-rule="evenodd">
        <g id="Logo" transform="translate(54.000000, -31.000000)" fill="#FFFFFF" fill-rule="nonzero">
            <rect id="Rectangle" x="0" y="0" width="468" height="471"></rect>
        </g>
        <g id="Logo" transform="translate(-14.000000, -14.000000)" fill-rule="nonzero">
            <rect id="Rectangle" fill="#53C3EB" x="22" y="21" width="468" height="471"></rect>
            <g id="flaticon" fill="#262626">
                <path d="M471.578947,0 L40.4210526,0 C18.0971217,0 0,18.0971217 0,40.4210526 L0,471.578947 C0,493.902878 18.0971217,512 40.4210526,512 L471.578947,512 C493.902878,512 512,493.902878 512,471.578947 L512,40.4210526 C512,18.0971217 493.902878,0 471.578947,0 Z M234.206316,213.76 C241.414737,219.216842 254.08,224.830877 272.202105,230.602105 C287.703197,235.298314 302.672513,241.597619 316.867368,249.397895 C345.229474,265.745965 359.410526,288.269474 359.410526,316.968421 C359.410526,339.918596 350.753684,357.883509 333.44,370.863158 C316.126316,383.842807 292.412632,390.467368 262.298947,390.736842 C242.46238,391.026355 222.788262,387.123671 204.564211,379.284211 C188.815779,372.863936 175.291226,361.974037 165.658947,347.957895 C156.848586,334.312506 152.298948,318.353595 152.589474,302.113684 L216.016842,302.113684 C216.016842,316.148772 219.643509,326.501053 226.896842,333.170526 C234.150175,339.84 245.950877,343.208421 262.298947,343.275789 C271.061125,343.749256 279.742678,341.386929 287.056842,336.538947 C293.084542,332.130781 296.510094,325.001588 296.185263,317.541053 C296.608652,309.127867 292.930447,301.030794 286.315789,295.814737 C279.781053,290.672281 268.283509,285.327719 251.823158,279.781053 C238.014793,275.322144 224.512374,269.966185 211.402105,263.747368 C177.493333,247.04 160.538947,224.101053 160.538947,194.930526 C160.317483,181.043612 164.792215,167.488853 173.237895,156.463158 C182.623048,144.695686 195.053577,135.725201 209.178947,130.526316 C225.834301,124.143853 243.555032,120.999852 261.389474,121.263158 C278.824775,120.990049 296.118167,124.434948 312.117895,131.368421 C326.230425,137.411893 338.316813,147.370889 346.947368,160.067368 C355.290138,172.693649 359.622659,187.546327 359.376842,202.677895 L296.421053,202.677895 C296.972915,193.345904 293.372807,184.247 286.585263,177.818947 C279.165031,171.638817 269.685608,168.48703 260.042105,168.993684 C250.54628,168.468405 241.143217,171.097473 233.296842,176.471579 C227.084725,180.754825 223.380653,187.822799 223.393684,195.368421 C223.393684,202.105263 226.997895,208.235789 234.206316,213.76 L234.206316,213.76 Z" id="Shape"></path>
            </g>
        </g>
    </g>
</svg>