<?xml version="1.0" encoding="UTF-8"?>
<svg width="492px" height="298px" viewBox="0 0 492 298" version="1.1" xmlns="http://www.w3.org/2000/svg" xmlns:xlink="http://www.w3.org/1999/xlink">
    <!-- Generator: Sketch 63.1 (92452) - https://sketch.com -->
    <title>News Feed Post Copy</title>
    <desc>Created with Sketch.</desc>
    <g id="News-Feed-Post-Copy" stroke="none" stroke-width="1" fill="none" fill-rule="evenodd">
        <rect fill="#FFFFFF" x="0" y="0" width="492" height="298"></rect>
        <g id="done" transform="translate(200.000000, 42.000000)" fill-rule="nonzero">
            <g id="Group">
                <path d="M67.4159533,82.7229572 C61.2642023,86.2873541 54.1173152,88.3138132 46.5,88.3138132 C23.4128405,88.3138132 4.68618677,69.5871595 4.68618677,46.5 C4.68618677,23.4128405 23.4128405,4.68618677 46.5,4.68618677 C54.1173152,4.68618677 61.2642023,6.7307393 67.4159533,10.2770428 C54.9134241,17.4963035 46.5,31.0120623 46.5,46.5 C46.5,61.9879377 54.9134241,75.4856031 67.4159533,82.7229572 Z" id="Path" fill="#BCF4AB"></path>
                <path d="M88.3861868,26.6877432 C84.6046693,18.6723735 78.6157588,11.9416342 71.0708171,7.2192607 C60.5766537,0.669455253 48.1464981,-1.41128405 36.0963035,1.37509728 C24.0461089,4.14338521 13.7871595,11.4531128 7.23735409,21.9472763 C0.669455253,32.4414397 -1.41128405,44.8535019 1.37509728,56.9217899 C4.1614786,68.9719844 11.4712062,79.2309339 21.9472763,85.7807393 C29.3293774,90.3945525 37.7970817,92.8371595 46.4638132,92.8371595 L47.0247082,92.8371595 C55.6552529,92.7285992 64.0505837,90.2317121 71.3241245,85.6359922 C73.4410506,84.2970817 74.0562257,81.5107004 72.7173152,79.3937743 C71.3784047,77.2768482 68.5920233,76.6616732 66.4750973,78.0005837 C60.6309339,81.7097276 53.8640078,83.7180934 46.9161479,83.8085603 C39.7873541,83.8990272 32.8214008,81.9268482 26.7420233,78.1453307 C18.2924125,72.8620623 12.4120623,64.6114786 10.1865759,54.9134241 C7.94299611,45.2153696 9.62568093,35.227821 14.9089494,26.7782101 C25.8011673,9.35428016 48.8521401,4.0348249 66.27607,14.9270428 C72.3554475,18.7266537 77.1682879,24.1365759 80.2079767,30.577821 C83.1752918,36.8562257 84.3332685,43.822179 83.5552529,50.6976654 C83.2838521,53.1764591 85.0570039,55.4200389 87.5538911,55.6914397 C90.0326848,55.9628405 92.2762646,54.1896887 92.5476654,51.6928016 C93.5066148,43.1346304 92.059144,34.4859922 88.3861868,26.6877432 L88.3861868,26.6877432 Z" id="Path" fill="#000000"></path>
            </g>
            <path d="M61.3264858,31.3267852 L39.6970483,53.0968941 L31.6735142,45.0278736 C29.9144396,43.2588267 27.0783805,43.2588267 25.3193059,45.0278736 C23.5602314,46.7969206 23.5602314,49.6490576 25.3193059,51.4181046 L36.5199442,62.6822405 C37.3994815,63.566764 38.5482649,64 39.6970483,64 C40.8458317,64 41.9946151,63.566764 42.8741524,62.6822405 L67.6806941,37.7170162 C69.4397686,35.9479692 69.4397686,33.0958322 67.6806941,31.3267852 C65.9216195,29.5577383 63.0855604,29.5577383 61.3264858,31.3267852 L61.3264858,31.3267852 Z" id="Path" fill="#000000"></path>
        </g>
        <text id="Success!-Your-form-h" font-family="Arial" font-size="25" font-weight="600" fill="#262626">
            <tspan x="113.077637" y="182">Success! Your form has </tspan>
            <tspan x="155.411621" y="211">been submitted.</tspan>
        </text>
        <text id="I-will-get-back-to" font-family="Arial" font-size="20" font-weight="600" fill="#262626">
            <tspan x="108.347656" y="247">I will get back to you shortly.</tspan>
        </text>
    </g>
</svg>